<svg width="675" height="128" viewBox="0 0 675 128" fill="none" xmlns="http://www.w3.org/2000/svg">
<path d="M179.407 106C171.242 106 164.916 103.488 160.428 98.4627C155.939 93.3901 153.695 86.2316 153.695 76.9872V31.6183H171.6V71.4405C171.6 77.556 172.651 82.0123 174.752 84.8094C176.852 87.6064 180.171 89.0049 184.707 89.0049C189.577 89.0049 193.158 87.6064 195.45 84.8094C197.789 81.9649 198.959 77.6035 198.959 71.7249V31.6183H216.792V104.294H198.959V97.4672C196.715 100.312 193.946 102.445 190.651 103.867C187.404 105.289 183.656 106 179.407 106ZM239.32 104.294V31.6183H257.225V38.5872C259.565 35.6953 262.358 33.5383 265.604 32.1161C268.899 30.6464 272.647 29.9116 276.849 29.9116C285.013 29.9116 291.316 32.4242 295.756 37.4494C300.197 42.4272 302.417 49.6094 302.417 58.996V104.294H284.584V64.4716C284.584 58.3561 283.509 53.8998 281.361 51.1027C279.26 48.2583 275.965 46.8361 271.477 46.8361C266.607 46.8361 263.002 48.2583 260.663 51.1027C258.371 53.8998 257.225 58.2612 257.225 64.1872V104.294H239.32ZM324.232 104.294V31.6183H342.137V104.294H324.232ZM333.184 22.5161C330.32 22.5161 327.837 21.4968 325.736 19.4583C323.683 17.3723 322.656 14.9072 322.656 12.0627C322.656 9.21827 323.683 6.8005 325.736 4.80938C327.789 2.77086 330.272 1.75161 333.184 1.75161C336.192 1.75161 338.699 2.74716 340.704 4.73827C342.71 6.72938 343.712 9.17087 343.712 12.0627C343.712 14.9546 342.686 17.4198 340.633 19.4583C338.627 21.4968 336.145 22.5161 333.184 22.5161ZM378.835 104.294L358.638 31.6183H376.257L385.138 67.956C385.472 69.2361 385.806 70.8005 386.14 72.6494C386.522 74.4509 386.833 76.1338 387.072 77.6983C387.406 76.1812 387.788 74.4983 388.217 72.6494C388.647 70.8005 389.029 69.2361 389.363 67.956L399.175 31.6183H414.788L424.529 67.956C424.863 69.2835 425.245 70.8716 425.675 72.7205C426.152 74.5694 426.534 76.2523 426.82 77.7694C427.107 76.2049 427.417 74.522 427.752 72.7205C428.086 70.919 428.42 69.3309 428.754 67.956L437.85 31.6183H455.468L435.057 104.294H419.229L409.632 67.956C409.297 66.6286 408.868 64.8746 408.343 62.6938C407.817 60.5131 407.364 58.5694 406.982 56.8627C406.648 58.5694 406.218 60.5131 405.693 62.6938C405.167 64.8746 404.738 66.6286 404.403 67.956L394.735 104.294H378.835ZM500.612 106C490.298 106 482.158 102.611 476.19 95.8316C470.222 89.0523 467.237 79.7842 467.237 68.0272C467.237 60.2523 468.598 53.5205 471.32 47.8316C474.041 42.0953 477.884 37.6864 482.85 34.6049C487.863 31.4761 493.784 29.9116 500.612 29.9116C507.392 29.9116 513.265 31.4523 518.23 34.5338C523.196 37.6153 527.015 42.0005 529.689 47.6894C532.363 53.3783 533.7 60.1338 533.7 67.956C533.7 75.8257 532.363 82.6049 529.689 88.2938C527.063 93.9827 523.267 98.3679 518.302 101.449C513.336 104.483 507.439 106 500.612 106ZM500.612 89.0049C505.434 89.0049 509.182 87.1561 511.856 83.4583C514.53 79.7605 515.867 74.5931 515.867 67.956C515.867 61.319 514.506 56.1516 511.784 52.4538C509.111 48.7086 505.386 46.8361 500.612 46.8361C495.789 46.8361 492.017 48.7086 489.296 52.4538C486.574 56.199 485.213 61.3901 485.213 68.0272C485.213 74.5694 486.574 79.7131 489.296 83.4583C492.017 87.1561 495.789 89.0049 500.612 89.0049ZM550.836 104.294V31.6183H568.741V39.4405C570.078 36.6435 572.179 34.3679 575.044 32.6138C577.908 30.8123 580.917 29.9116 584.068 29.9116C589.272 29.9116 593.665 31.6894 597.246 35.2449L594.739 51.5294C592.781 49.9175 590.872 48.7798 589.009 48.116C587.147 47.4523 585.094 47.1205 582.85 47.1205C579.89 47.1205 577.359 47.8079 575.259 49.1827C573.158 50.5575 571.534 52.5486 570.388 55.1561C569.29 57.7635 568.741 60.8923 568.741 64.5427V104.294H550.836ZM609.727 104.294V9.92938L627.632 1.60938V52.3116L647.972 31.6183H669.171L647.972 52.5249L674.901 104.294H655.42L634.865 65.1827L627.632 72.2938V104.294H609.727Z" fill="black"/>
<path d="M40.3008 0.667509C32.3569 2.28513 21.7973 7.61374 15.9847 12.9423C9.39708 19.1273 5.32822 25.2172 2.32505 33.5906C0.193754 39.7756 0 41.2029 0 63.4691C0 84.2122 0.193754 87.6378 1.93754 93.0617C7.1689 109.809 21.9911 123.035 39.8164 126.651C48.826 128.554 53.4761 128.459 62.292 126.27C79.633 121.893 92.2266 109.999 98.427 91.9197C99.9768 87.3524 100.268 83.6414 100.268 64.3252C100.268 39.5853 99.7835 36.7307 94.2611 26.1687C88.7392 15.6066 78.5673 7.04281 66.5543 2.66574C59.9667 0.191754 47.2759 -0.75979 40.3008 0.667509ZM42.0446 12.752C42.8196 14.0842 37.007 23.2189 32.4538 27.7863C28.4818 31.6876 17.7285 37.6823 14.6284 37.6823C12.6909 37.6823 14.0472 33.5906 17.8253 27.6911C21.3129 22.4577 28.0943 17.0339 34.9726 13.8938C39.6227 11.8956 41.2696 11.6102 42.0446 12.752ZM66.3609 14.6551C73.4327 17.9854 77.4047 21.1255 81.667 27.025C89.1269 37.3968 88.0612 39.7756 78.0827 34.9228C70.7202 31.4021 65.1014 26.2638 61.1293 19.4128C56.2855 11.1344 57.0604 10.3732 66.3609 14.6551ZM42.6259 35.7792C42.6259 36.3501 41.3665 39.2999 39.8164 42.3448C34.9726 51.6698 22.6692 61.0902 14.3378 61.6609L11.1408 61.9463V55.8564V49.7669L16.566 48.5296C24.0255 46.817 31.5819 43.2012 36.8132 38.6338C41.3665 34.7325 42.6259 34.1616 42.6259 35.7792ZM62.873 38.5386C68.5888 43.2012 76.1451 46.9121 83.1204 48.5296L88.6423 49.7669L88.9331 56.2371L89.2239 62.7077L86.1237 62.0416C73.9173 59.6627 61.2263 48.4347 57.6419 36.921C56.7701 33.9713 57.6419 34.2567 62.873 38.5386ZM40.2039 66.3235C35.2632 75.7438 21.7973 86.2104 14.4347 86.2104C12.0127 86.2104 11.7221 85.8297 11.1408 82.0238C10.0752 75.3631 10.4627 74.697 17.0503 72.8889C25.0911 70.7959 32.5506 67.0848 37.782 62.5171C43.0134 58.0452 43.7883 59.282 40.2039 66.3235ZM72.6577 69.1779C75.0794 70.3199 79.633 72.0327 82.8296 72.8889C89.3203 74.5065 89.8049 75.4584 88.6423 82.9753L88.0612 87.067L83.1204 85.5443C71.592 82.2139 60.0636 71.1761 57.545 61.0902L56.8665 58.2353L62.5823 62.6124C65.6824 64.9913 70.2356 67.941 72.6577 69.1779ZM71.7859 93.1565C74.6922 94.4887 78.1796 95.9161 79.7299 96.2015C81.1829 96.5822 82.6358 97.2483 82.9266 97.819C83.7984 99.2465 77.017 106.669 71.4951 110.284C66.5543 113.519 56.2855 117.23 56.0916 115.898C55.9947 114.852 55.9947 82.9753 56.0916 82.0238C56.1885 81.6432 58.5138 83.356 61.4201 85.925C64.3264 88.494 68.9765 91.7296 71.7859 93.1565ZM44.3696 99.2465L44.079 116.184L41.6571 115.898C36.8132 115.328 27.5131 110.189 22.9599 105.812C17.4378 100.293 15.8878 97.819 17.6316 97.153C29.3537 93.1565 38.6539 87.8279 40.9789 83.8315C41.3665 83.0706 42.4321 82.4045 43.2071 82.4045C44.3696 82.4045 44.5634 84.9735 44.3696 99.2465Z" fill="#007AFF"/>
</svg>
