<?xml version="1.0" standalone="no"?>
<!DOCTYPE svg PUBLIC "-//W3C//DTD SVG 20010904//EN"
 "http://www.w3.org/TR/2001/REC-SVG-20010904/DTD/svg10.dtd">
<svg version="1.0" xmlns="http://www.w3.org/2000/svg"
 width="340.000000pt" height="450.000000pt" viewBox="0 0 340.000000 450.000000"
 preserveAspectRatio="xMidYMid meet">

<g transform="translate(0.000000,450.000000) scale(0.100000,-0.100000)"
fill="#000000" stroke="none">
<path d="M0 2250 l0 -2250 1700 0 1700 0 0 2250 0 2250 -1700 0 -1700 0 0
-2250z m1797 1538 c23 -38 28 -52 32 -93 1 -5 5 -4 10 4 13 20 61 -55 61 -96
0 -32 -28 -73 -50 -73 -16 0 -12 -42 7 -62 24 -26 72 -22 145 12 69 33 92 36
153 19 78 -22 145 -101 170 -202 10 -39 -3 -119 -18 -110 -8 4 -7 1 1 -9 11
-14 9 -24 -12 -66 -29 -57 -81 -106 -145 -135 -62 -29 -214 -31 -280 -4 -60
24 -103 56 -98 72 3 6 1 18 -5 26 -8 11 -9 10 -4 -3 13 -40 -18 -12 -94 87
-96 124 -141 164 -210 189 -97 35 -187 4 -238 -82 -24 -42 -27 -57 -27 -137 0
-82 3 -96 33 -155 81 -159 245 -266 453 -296 53 -7 120 -22 148 -34 36 -14 51
-16 49 -8 -3 7 -22 18 -43 24 -36 10 -26 12 130 33 262 36 367 19 464 -78 142
-142 158 -420 32 -563 -34 -40 -122 -100 -149 -103 -9 -1 -30 -7 -47 -15 -48
-21 -228 -19 -295 4 -84 29 -182 80 -319 168 -181 115 -214 130 -298 136 -103
7 -157 -11 -215 -69 -173 -174 -32 -505 243 -568 66 -16 178 -13 240 5 30 9
119 49 198 90 188 97 295 135 387 137 63 2 77 -2 120 -28 133 -81 142 -296 18
-405 -41 -35 -140 -85 -189 -95 -86 -17 -149 -25 -230 -29 -175 -10 -266 -34
-316 -85 -45 -45 -58 -95 -38 -148 38 -99 165 -109 293 -23 46 31 110 62 175
85 117 40 223 -5 258 -111 16 -45 -4 -110 -42 -140 -16 -14 -58 -47 -92 -75
-67 -53 -98 -98 -88 -129 7 -23 47 -53 90 -68 l30 -10 -38 -1 c-77 -2 -147 51
-147 111 0 52 29 99 105 172 85 81 94 110 49 145 -54 42 -127 22 -269 -74
-249 -169 -462 -119 -495 117 -19 135 64 257 205 301 115 36 207 43 260 22 17
-8 18 -7 7 7 -11 14 -6 17 50 23 75 9 175 38 239 71 90 45 123 117 79 174 -17
22 -26 25 -82 24 -63 0 -127 -24 -198 -74 -45 -32 -204 -107 -270 -128 -293
-94 -527 -56 -690 110 -97 100 -165 332 -142 488 17 114 47 175 121 249 123
123 274 172 422 137 131 -32 214 -79 360 -208 36 -32 69 -58 74 -58 16 0 75
-52 70 -61 -4 -5 -1 -9 4 -9 6 0 11 4 11 9 0 5 28 -3 62 -17 84 -33 174 -40
235 -17 65 24 128 86 143 141 41 147 -85 314 -237 314 -20 0 -33 5 -33 13 0 7
-3 8 -8 2 -12 -17 -91 -18 -110 -2 -9 7 -26 17 -37 21 -17 5 -16 3 4 -12 13
-11 20 -21 15 -24 -34 -18 -401 -18 -432 0 -13 8 -43 15 -68 16 -63 4 -201 75
-273 142 -69 64 -126 149 -166 249 -37 92 -47 250 -21 339 41 138 143 226 305
262 62 14 89 15 148 7 164 -24 251 -100 407 -355 26 -43 61 -87 79 -100 18
-12 34 -25 37 -28 7 -10 50 -19 50 -11 0 7 85 32 113 32 9 0 15 4 12 9 -3 5 9
30 26 55 74 110 34 235 -77 235 -23 0 -71 -7 -105 -16 -128 -33 -214 2 -226
93 -5 36 -9 42 -36 47 -16 3 -36 11 -44 17 -17 15 -17 86 1 135 7 22 16 62 21
89 13 88 48 101 92 33z"/>
<path d="M1726 3705 c-9 -26 -7 -32 5 -12 6 10 9 21 6 23 -2 3 -7 -2 -11 -11z"/>
<path d="M1770 3670 c0 -5 5 -10 11 -10 5 0 7 5 4 10 -3 6 -8 10 -11 10 -2 0
-4 -4 -4 -10z"/>
<path d="M1436 3455 c-3 -9 0 -15 9 -15 8 0 15 7 15 15 0 8 -4 15 -9 15 -5 0
-11 -7 -15 -15z"/>
<path d="M1346 3448 c3 -5 10 -6 15 -3 13 9 11 12 -6 12 -8 0 -12 -4 -9 -9z"/>
<path d="M1811 3434 c0 -11 3 -14 6 -6 3 7 2 16 -1 19 -3 4 -6 -2 -5 -13z"/>
<path d="M1250 3425 c0 -8 4 -15 9 -15 5 0 14 7 21 15 10 13 9 15 -9 15 -12 0
-21 -6 -21 -15z"/>
<path d="M1951 3424 c0 -11 3 -14 6 -6 3 7 2 16 -1 19 -3 4 -6 -2 -5 -13z"/>
<path d="M1530 3426 c0 -2 7 -7 16 -10 8 -3 12 -2 9 4 -6 10 -25 14 -25 6z"/>
<path d="M1850 3420 c0 -5 5 -10 10 -10 6 0 10 5 10 10 0 6 -4 10 -10 10 -5 0
-10 -4 -10 -10z"/>
<path d="M1898 3403 c7 -3 16 -2 19 1 4 3 -2 6 -13 5 -11 0 -14 -3 -6 -6z"/>
<path d="M1615 3370 c3 -5 -11 -7 -32 -5 l-38 5 39 -10 c40 -10 73 1 41 14 -9
3 -13 2 -10 -4z"/>
<path d="M2208 3103 c7 -3 16 -2 19 1 4 3 -2 6 -13 5 -11 0 -14 -3 -6 -6z"/>
<path d="M2130 3066 c0 -2 7 -9 15 -16 13 -11 14 -10 9 4 -5 14 -24 23 -24 12z"/>
<path d="M1118 3053 c7 -3 16 -2 19 1 4 3 -2 6 -13 5 -11 0 -14 -3 -6 -6z"/>
<path d="M1885 3039 c-4 -6 -5 -12 -2 -15 2 -3 7 2 10 11 7 17 1 20 -8 4z"/>
<path d="M1995 3030 c-3 -6 1 -7 9 -4 18 7 21 14 7 14 -6 0 -13 -4 -16 -10z"/>
<path d="M2110 3029 c0 -5 5 -7 10 -4 6 3 10 8 10 11 0 2 -4 4 -10 4 -5 0 -10
-5 -10 -11z"/>
<path d="M2010 3010 c-13 -8 -12 -10 3 -10 9 0 17 5 17 10 0 12 -1 12 -20 0z"/>
<path d="M2085 3010 c-3 -5 -1 -10 4 -10 6 0 11 5 11 10 0 6 -2 10 -4 10 -3 0
-8 -4 -11 -10z"/>
<path d="M1900 3000 c-9 -6 -10 -10 -3 -10 6 0 15 5 18 10 8 12 4 12 -15 0z"/>
<path d="M2050 2995 c0 -8 2 -15 4 -15 2 0 6 7 10 15 3 8 1 15 -4 15 -6 0 -10
-7 -10 -15z"/>
<path d="M1134 2912 c3 -5 0 -13 -6 -15 -9 -4 -10 -6 -1 -6 17 -1 25 16 12 25
-7 4 -9 3 -5 -4z"/>
<path d="M1310 2768 c0 -9 7 -19 16 -22 15 -6 15 -4 3 11 -7 10 -15 20 -16 22
-2 2 -3 -3 -3 -11z"/>
<path d="M1580 2666 c0 -2 8 -10 18 -17 15 -13 16 -12 3 4 -13 16 -21 21 -21
13z"/>
<path d="M1708 2593 c6 -2 18 -2 25 0 6 3 1 5 -13 5 -14 0 -19 -2 -12 -5z"/>
<path d="M2378 2593 c7 -3 16 -2 19 1 4 3 -2 6 -13 5 -11 0 -14 -3 -6 -6z"/>
<path d="M2402 2450 c0 -14 2 -19 5 -12 2 6 2 18 0 25 -3 6 -5 1 -5 -13z"/>
<path d="M1275 2421 c-3 -5 -2 -12 3 -15 5 -3 9 1 9 9 0 17 -3 19 -12 6z"/>
<path d="M1295 2380 c3 -5 8 -10 11 -10 2 0 4 5 4 10 0 6 -5 10 -11 10 -5 0
-7 -4 -4 -10z"/>
<path d="M2440 2361 c0 -6 4 -13 10 -16 6 -3 7 1 4 9 -7 18 -14 21 -14 7z"/>
<path d="M1360 2289 c0 -5 5 -7 10 -4 6 3 10 8 10 11 0 2 -4 4 -10 4 -5 0 -10
-5 -10 -11z"/>
<path d="M1560 2230 c-8 -5 -12 -12 -9 -15 4 -3 12 1 19 10 14 17 11 19 -10 5z"/>
<path d="M1691 2204 c0 -11 3 -14 6 -6 3 7 2 16 -1 19 -3 4 -6 -2 -5 -13z"/>
<path d="M1720 2187 c0 -3 12 -12 26 -22 15 -9 23 -12 20 -6 -7 11 -46 35 -46
28z"/>
<path d="M1690 2125 c-11 -13 -10 -14 4 -9 9 3 16 10 16 15 0 13 -6 11 -20 -6z"/>
<path d="M948 2083 c6 -2 18 -2 25 0 6 3 1 5 -13 5 -14 0 -19 -2 -12 -5z"/>
<path d="M2355 2079 c-11 -17 1 -21 15 -4 8 9 8 15 2 15 -6 0 -14 -5 -17 -11z"/>
<path d="M955 2031 c-3 -5 -2 -12 3 -15 5 -3 9 1 9 9 0 17 -3 19 -12 6z"/>
<path d="M2277 2019 c-9 -5 -21 -8 -26 -4 -5 3 -12 1 -16 -5 -10 -16 41 -12
55 5 14 17 12 18 -13 4z"/>
<path d="M950 1991 c0 -5 5 -13 10 -16 6 -3 10 -2 10 4 0 5 -4 13 -10 16 -5 3
-10 2 -10 -4z"/>
<path d="M2100 1986 c0 -2 9 -6 20 -9 11 -3 18 -1 14 4 -5 9 -34 13 -34 5z"/>
<path d="M1010 1804 c0 -10 5 -26 10 -34 8 -11 9 -7 4 15 -8 37 -14 45 -14 19z"/>
<path d="M2162 1768 c-15 -15 -15 -28 0 -28 6 0 8 3 5 7 -4 3 -2 12 4 20 14
16 7 17 -9 1z"/>
<path d="M2070 1740 c-8 -5 -10 -10 -5 -10 6 0 17 5 25 10 8 5 11 10 5 10 -5
0 -17 -5 -25 -10z"/>
<path d="M2290 1730 c0 -5 5 -10 11 -10 5 0 7 5 4 10 -3 6 -8 10 -11 10 -2 0
-4 -4 -4 -10z"/>
<path d="M1030 1726 c0 -4 14 -24 30 -43 17 -18 30 -30 30 -26 0 4 -14 24 -30
43 -16 19 -30 31 -30 26z"/>
<path d="M2025 1720 c-16 -7 -17 -9 -3 -9 9 -1 20 4 23 9 7 11 7 11 -20 0z"/>
<path d="M1963 1695 c0 -8 4 -15 9 -15 4 0 8 4 8 9 0 6 -4 12 -8 15 -5 3 -9
-1 -9 -9z"/>
<path d="M1785 1610 c-3 -6 1 -7 9 -4 18 7 21 14 7 14 -6 0 -13 -4 -16 -10z"/>
<path d="M1118 1603 c7 -3 16 -2 19 1 4 3 -2 6 -13 5 -11 0 -14 -3 -6 -6z"/>
<path d="M1258 1527 c12 -7 19 -17 15 -22 -4 -4 -2 -5 6 0 12 7 11 10 -4 22
-11 7 -24 13 -29 13 -6 -1 -1 -6 12 -13z"/>
<path d="M2325 1529 c-4 -6 -5 -12 -2 -15 2 -3 7 2 10 11 7 17 1 20 -8 4z"/>
<path d="M1320 1510 c8 -5 20 -10 25 -10 6 0 3 5 -5 10 -8 5 -19 10 -25 10 -5
0 -3 -5 5 -10z"/>
<path d="M1413 1493 c9 -2 23 -2 30 0 6 3 -1 5 -18 5 -16 0 -22 -2 -12 -5z"/>
<path d="M2150 1426 c0 -2 7 -7 16 -10 8 -3 12 -2 9 4 -6 10 -25 14 -25 6z"/>
<path d="M2028 1358 c5 -5 19 -5 33 1 22 8 22 9 -9 9 -19 -1 -29 -5 -24 -10z"/>
<path d="M1815 1330 c3 -5 8 -10 11 -10 2 0 4 5 4 10 0 6 -5 10 -11 10 -5 0
-7 -4 -4 -10z"/>
<path d="M1660 1283 c0 -22 2 -25 10 -13 13 20 13 40 0 40 -5 0 -10 -12 -10
-27z"/>
<path d="M1600 1281 c0 -6 5 -13 10 -16 6 -3 10 1 10 9 0 9 -4 16 -10 16 -5 0
-10 -4 -10 -9z"/>
<path d="M1443 1163 c8 -13 57 -23 57 -12 0 5 -6 9 -14 9 -8 0 -22 3 -32 7
-11 4 -15 3 -11 -4z"/>
<path d="M1516 1125 c4 -8 8 -15 10 -15 2 0 4 7 4 15 0 8 -4 15 -10 15 -5 0
-7 -7 -4 -15z"/>
<path d="M1440 1106 c0 -2 7 -9 15 -16 9 -7 15 -8 15 -2 0 5 -7 12 -15 16 -8
3 -15 4 -15 2z"/>
<path d="M2188 1063 c7 -3 16 -2 19 1 4 3 -2 6 -13 5 -11 0 -14 -3 -6 -6z"/>
<path d="M2000 1050 c-13 -8 -12 -10 3 -10 9 0 17 5 17 10 0 12 -1 12 -20 0z"/>
<path d="M1945 1040 c-3 -5 -1 -10 4 -10 6 0 11 5 11 10 0 6 -2 10 -4 10 -3 0
-8 -4 -11 -10z"/>
<path d="M2210 970 c-9 -6 -10 -10 -3 -10 6 0 15 5 18 10 8 12 4 12 -15 0z"/>
<path d="M1540 935 c0 -9 6 -12 15 -9 8 4 15 10 15 15 0 5 -7 9 -15 9 -8 0
-15 -7 -15 -15z"/>
<path d="M1530 894 c0 -8 5 -12 10 -9 6 4 8 11 5 16 -9 14 -15 11 -15 -7z"/>
</g>
</svg>
